<?xml version="1.0" standalone="no"?>
<!DOCTYPE svg PUBLIC "-//W3C//DTD SVG 20010904//EN"
 "http://www.w3.org/TR/2001/REC-SVG-20010904/DTD/svg10.dtd">
<svg version="1.0" xmlns="http://www.w3.org/2000/svg"
 width="621.000000pt" height="621.000000pt" viewBox="0 0 621.000000 621.000000"
 preserveAspectRatio="xMidYMid meet">
<metadata>
Created by potrace 1.11, written by Peter Selinger 2001-2013
</metadata>
<g transform="translate(0.000000,621.000000) scale(0.100000,-0.100000)"
fill="#000000" stroke="none">
<path d="M2016 6074 c-165 -40 -322 -189 -377 -359 -10 -30 -15 -175 -19 -590
l-5 -550 -550 -5 c-486 -5 -555 -8 -593 -23 -184 -72 -298 -189 -358 -367 -18
-52 -19 -105 -19 -1090 l0 -1035 23 -68 c45 -130 145 -247 264 -308 112 -57
134 -59 704 -59 467 0 523 -2 528 -16 3 -9 6 -247 6 -529 0 -339 4 -532 11
-567 36 -173 187 -335 363 -391 l71 -22 1025 0 1025 0 72 23 c170 54 315 203
357 368 14 53 16 140 16 575 0 283 3 524 6 537 l6 22 527 0 c576 0 584 1 699
59 119 61 219 178 264 308 l23 68 0 1045 0 1045 -29 70 c-54 131 -140 229
-254 288 -119 62 -100 60 -692 66 l-545 6 -5 555 c-5 539 -6 556 -27 607 -51
127 -144 234 -251 291 -121 64 -77 62 -1193 61 -845 -1 -1024 -3 -1073 -15z
m2115 -321 c40 -21 61 -40 84 -77 l30 -49 3 -683 2 -683 678 -3 c745 -3 713
-1 778 -66 17 -17 40 -48 50 -69 18 -37 19 -76 19 -1033 l0 -995 -28 -47 c-26
-45 -69 -85 -112 -104 -11 -5 -326 -11 -700 -14 l-680 -5 -5 -685 c-6 -761 -1
-714 -74 -777 -68 -60 -23 -58 -1086 -58 -1062 0 -1018 -2 -1086 58 -72 62
-68 26 -74 782 l-5 680 -680 5 -680 5 -45 25 c-60 34 -107 104 -115 173 -3 28
-5 480 -3 1002 l3 950 29 52 c32 59 84 98 148 113 26 6 301 10 696 10 l652 0
0 669 c0 446 4 679 11 698 21 56 61 102 112 128 l51 25 986 0 986 0 55 -27z"/>
<path d="M2210 4034 c-282 -60 -509 -283 -577 -566 -36 -149 -15 -357 48 -488
59 -121 113 -181 758 -825 l651 -650 646 645 c355 355 665 672 690 706 24 34
58 91 75 127 36 77 69 227 69 312 0 85 -33 235 -68 310 -137 291 -417 460
-732 442 -122 -7 -184 -24 -296 -78 -144 -70 -271 -200 -342 -350 -20 -43 -40
-79 -43 -79 -4 0 -14 19 -24 43 -88 223 -310 407 -547 452 -98 18 -221 18
-308 -1z"/>
</g>
</svg>
